<svg width="63" height="18" viewBox="0 0 63 18" fill="none" xmlns="http://www.w3.org/2000/svg">
<path d="M19.1484 2.15266e-05L24.6483 0L6.64821 17.9999L0.648438 18L19.1484 2.15266e-05Z" fill="#172929"/>
<path d="M26.9167 0.000760346L27.562 0.61385L28.6976 1.72825L12.6482 17.9997L8.64823 17.9998L26.9167 0.000760346Z" fill="#172929"/>
<path d="M44.017 0.027048L44.6623 0.640112L45.7978 1.75457L29.6591 17.989L25.6482 17.9998L44.017 0.027048Z" fill="#172929"/>
<path d="M27.3236 0.355918L26.7029 0.945307L25.6113 2.01733L41.6478 17.9999L45.6482 17.9998L27.3236 0.355918Z" fill="#172929"/>
<path d="M44.4016 0.407072L43.7714 1.00564L42.6627 2.09408L58.701 17.949L62.7324 17.9186L44.4016 0.407072Z" fill="#172929"/>
<path d="M18.6482 15.9998H29.367L29.6072 17.1507L29.6482 17.9998H16.6482L18.6482 15.9998Z" fill="#172929"/>
</svg>
