<?xml version="1.0" encoding="UTF-8"?>
<svg xmlns="http://www.w3.org/2000/svg" xmlns:xlink="http://www.w3.org/1999/xlink" width="512pt" height="512pt" viewBox="0 0 512 512" version="1.1">
<g id="surface1">
<path style=" stroke:none;fill-rule:nonzero;fill:rgb(94.099426%,94.099426%,94.099426%);fill-opacity:1;" d="M 56 0.46875 C 43 3 33.957031 12.042969 25 21 C 6.835938 39.164063 -8.296875 59.449219 3.902344 86 C 11.429688 102.382813 29.449219 115.449219 42 128 L 158 244 C 160.769531 246.769531 168.984375 252.464844 167.792969 257 C 166.628906 261.4375 160 266 157 269 L 39 387 C 25.253906 400.746094 6.292969 414.410156 1 434 C -4.761719 456.570313 6.816406 472.816406 22 488 C 42 508.125 68.710938 523 95 502.480469 C 109.839844 490.808594 122.652344 475.347656 136 462 L 245 353 C 247.628906 350.371094 252.675781 343.070313 257 344.207031 C 261 345.289063 265 351.101563 268 354 L 390 476 C 409.324219 495.324219 428.394531 519 459 511 C 470.710938 507.671875 478.691406 499.308594 487 491 C 505 473 521 451.394531 507.628906 425 C 499.378906 408.738281 481.742188 395.742188 469 383 L 354 268 C 351.230469 265.230469 343 259.535156 344.207031 255 C 345.371094 250.5625 351.863281 246.136719 355 243 L 473 125 C 486.625 111.375 505.96875 97.472656 511 78 C 516.96875 55.523438 505 39.023438 490 24 C 469.933594 4 443.273438 -11 417 9.519531 C 402 21.191406 389.347656 36.652344 376 50 L 267 159 C 264.371094 161.628906 259.324219 169 255 167.792969 C 250.882813 166.710938 246.898438 161 244 158 L 118 32 C 100 14.097656 83.832031 -4.746094 56 0.46875 "/>
</g>
</svg>
