<svg width="168" height="23" viewBox="0 0 168 23" fill="none" xmlns="http://www.w3.org/2000/svg">
<path d="M0 17.9998V1.19984H6.912C8.4 1.19984 9.672 1.43984 10.728 1.91984C11.8 2.39984 12.624 3.08784 13.2 3.98384C13.776 4.87984 14.064 5.94384 14.064 7.17584C14.064 8.40784 13.776 9.47184 13.2 10.3678C12.624 11.2638 11.8 11.9518 10.728 12.4318C9.672 12.9118 8.4 13.1518 6.912 13.1518H1.728L3.12 11.6878V17.9998H0ZM3.12 12.0238L1.728 10.5118H6.768C8.144 10.5118 9.176 10.2238 9.864 9.64784C10.568 9.05584 10.92 8.23184 10.92 7.17584C10.92 6.10384 10.568 5.27984 9.864 4.70384C9.176 4.12784 8.144 3.83984 6.768 3.83984H1.728L3.12 2.30384V12.0238Z" fill="#172929"/>
<path d="M20.0514 17.9998V3.07184L20.7954 3.83984H14.5074V1.19984H28.7154V3.83984H22.4274L23.1474 3.07184V17.9998H20.0514Z" fill="#172929"/>
<path d="M35.5898 18.1678C34.2458 18.1678 33.0457 17.8878 31.9897 17.3278C30.9497 16.7518 30.1338 15.9678 29.5417 14.9758C28.9497 13.9838 28.6537 12.8558 28.6537 11.5918C28.6537 10.3118 28.9497 9.18384 29.5417 8.20784C30.1338 7.21584 30.9497 6.43984 31.9897 5.87984C33.0457 5.31984 34.2458 5.03984 35.5898 5.03984C36.8378 5.03984 37.9338 5.29584 38.8778 5.80784C39.8377 6.30384 40.5658 7.03984 41.0617 8.01584L38.7578 9.35984C38.3738 8.75184 37.9018 8.30384 37.3418 8.01584C36.7978 7.72784 36.2057 7.58384 35.5658 7.58384C34.8298 7.58384 34.1657 7.74384 33.5737 8.06384C32.9818 8.38384 32.5177 8.84784 32.1818 9.45584C31.8458 10.0478 31.6777 10.7598 31.6777 11.5918C31.6777 12.4238 31.8458 13.1438 32.1818 13.7518C32.5177 14.3438 32.9818 14.7998 33.5737 15.1198C34.1657 15.4398 34.8298 15.5998 35.5658 15.5998C36.2057 15.5998 36.7978 15.4558 37.3418 15.1678C37.9018 14.8798 38.3738 14.4318 38.7578 13.8238L41.0617 15.1678C40.5658 16.1278 39.8377 16.8718 38.8778 17.3998C37.9338 17.9118 36.8378 18.1678 35.5898 18.1678Z" fill="#172929"/>
<path d="M46.2733 17.9998V7.00784L46.9693 7.72784H41.7613V5.18384H53.7613V7.72784H48.5773L49.2733 7.00784V17.9998H46.2733Z" fill="#172929"/>
<path d="M63.0414 18.1678C62.0014 18.1678 61.0494 17.9278 60.1854 17.4478C59.3374 16.9678 58.6574 16.2478 58.1454 15.2878C57.6494 14.3118 57.4014 13.0798 57.4014 11.5918C57.4014 10.0878 57.6414 8.85584 58.1214 7.89584C58.6174 6.93584 59.2894 6.22384 60.1374 5.75984C60.9854 5.27984 61.9534 5.03984 63.0414 5.03984C64.3054 5.03984 65.4174 5.31184 66.3774 5.85584C67.3534 6.39984 68.1214 7.15984 68.6814 8.13584C69.2574 9.11184 69.5454 10.2638 69.5454 11.5918C69.5454 12.9198 69.2574 14.0798 68.6814 15.0718C68.1214 16.0478 67.3534 16.8078 66.3774 17.3518C65.4174 17.8958 64.3054 18.1678 63.0414 18.1678ZM55.9374 22.6558V5.18384H58.7934V8.20784L58.6974 11.6158L58.9374 15.0238V22.6558H55.9374ZM62.7054 15.5998C63.4254 15.5998 64.0654 15.4398 64.6254 15.1198C65.2014 14.7998 65.6574 14.3358 65.9934 13.7278C66.3294 13.1198 66.4974 12.4078 66.4974 11.5918C66.4974 10.7598 66.3294 10.0478 65.9934 9.45584C65.6574 8.84784 65.2014 8.38384 64.6254 8.06384C64.0654 7.74384 63.4254 7.58384 62.7054 7.58384C61.9854 7.58384 61.3374 7.74384 60.7614 8.06384C60.1854 8.38384 59.7294 8.84784 59.3934 9.45584C59.0574 10.0478 58.8894 10.7598 58.8894 11.5918C58.8894 12.4078 59.0574 13.1198 59.3934 13.7278C59.7294 14.3358 60.1854 14.7998 60.7614 15.1198C61.3374 15.4398 61.9854 15.5998 62.7054 15.5998Z" fill="#172929"/>
<path d="M78.2432 18.1678C76.9312 18.1678 75.7632 17.8878 74.7392 17.3278C73.7152 16.7518 72.9072 15.9678 72.3152 14.9758C71.7232 13.9838 71.4272 12.8558 71.4272 11.5918C71.4272 10.3118 71.7232 9.18384 72.3152 8.20784C72.9072 7.21584 73.7152 6.43984 74.7392 5.87984C75.7632 5.31984 76.9312 5.03984 78.2432 5.03984C79.5712 5.03984 80.7472 5.31984 81.7712 5.87984C82.8112 6.43984 83.6192 7.20784 84.1952 8.18384C84.7872 9.15984 85.0832 10.2958 85.0832 11.5918C85.0832 12.8558 84.7872 13.9838 84.1952 14.9758C83.6192 15.9678 82.8112 16.7518 81.7712 17.3278C80.7472 17.8878 79.5712 18.1678 78.2432 18.1678ZM78.2432 15.5998C78.9792 15.5998 79.6352 15.4398 80.2112 15.1198C80.7872 14.7998 81.2352 14.3358 81.5552 13.7278C81.8912 13.1198 82.0592 12.4078 82.0592 11.5918C82.0592 10.7598 81.8912 10.0478 81.5552 9.45584C81.2352 8.84784 80.7872 8.38384 80.2112 8.06384C79.6352 7.74384 78.9872 7.58384 78.2672 7.58384C77.5312 7.58384 76.8752 7.74384 76.2992 8.06384C75.7392 8.38384 75.2912 8.84784 74.9552 9.45584C74.6192 10.0478 74.4512 10.7598 74.4512 11.5918C74.4512 12.4078 74.6192 13.1198 74.9552 13.7278C75.2912 14.3358 75.7392 14.7998 76.2992 15.1198C76.8752 15.4398 77.5232 15.5998 78.2432 15.5998Z" fill="#172929"/>
<path d="M88.0468 17.9998V5.18384H91.0468V13.6318L98.1268 5.18384H100.863V17.9998H97.8628V9.55184L90.8068 17.9998H88.0468ZM94.2628 3.67184C92.9828 3.67184 91.9988 3.37584 91.3108 2.78384C90.6228 2.17584 90.2708 1.29584 90.2548 0.143839H92.2468C92.2628 0.719839 92.4388 1.17584 92.7748 1.51184C93.1268 1.84784 93.6148 2.01584 94.2388 2.01584C94.8468 2.01584 95.3268 1.84784 95.6788 1.51184C96.0468 1.17584 96.2388 0.719839 96.2548 0.143839H98.2948C98.2788 1.29584 97.9188 2.17584 97.2148 2.78384C96.5268 3.37584 95.5428 3.67184 94.2628 3.67184Z" fill="#172929"/>
<path d="M124.148 2.15266e-05L129.648 0L111.648 17.9999L105.648 18L124.148 2.15266e-05Z" fill="#172929"/>
<path d="M131.916 0.000760346L132.562 0.61385L133.697 1.72825L117.648 17.9997L113.648 17.9998L131.916 0.000760346Z" fill="#172929"/>
<path d="M149.017 0.027048L149.662 0.640112L150.797 1.75457L134.659 17.989L130.648 17.9998L149.017 0.027048Z" fill="#172929"/>
<path d="M132.323 0.355918L131.702 0.945307L130.611 2.01733L146.647 17.9999L150.648 17.9998L132.323 0.355918Z" fill="#172929"/>
<path d="M149.401 0.407072L148.771 1.00564L147.662 2.09408L163.701 17.949L167.732 17.9186L149.401 0.407072Z" fill="#172929"/>
<path d="M123.648 15.9998H134.367L134.607 17.1507L134.648 17.9998H121.648L123.648 15.9998Z" fill="#172929"/>
</svg>
